<svg width="21" height="17" viewBox="0 0 21 17" fill="none" xmlns="http://www.w3.org/2000/svg">
<path d="M13.412 8.51283C13.412 9.13821 13.2266 9.74955 12.8791 10.2695C12.5317 10.7895 12.0378 11.1948 11.4601 11.4341C10.8823 11.6735 10.2465 11.7361 9.63314 11.6141C9.01977 11.4921 8.45636 11.1909 8.01414 10.7487C7.57193 10.3065 7.27078 9.74307 7.14877 9.12971C7.02676 8.51634 7.08938 7.88056 7.32871 7.30279C7.56803 6.72501 7.97331 6.23117 8.4933 5.88372C9.01329 5.53628 9.62463 5.35083 10.25 5.35083C10.6653 5.35083 11.0764 5.43262 11.4601 5.59152C11.8437 5.75043 12.1923 5.98334 12.4859 6.27696C12.7795 6.57058 13.0124 6.91915 13.1713 7.30279C13.3302 7.68642 13.412 8.09759 13.412 8.51283Z" stroke="#00A77E" stroke-width="1.5" stroke-miterlimit="10" stroke-linecap="round" stroke-linejoin="round"/>
<path d="M10.248 15.8109C14.056 15.8109 17.539 13.0729 19.5 8.51094C17.539 3.94894 14.056 1.21094 10.248 1.21094C6.444 1.21094 2.961 3.94894 1 8.51094C2.961 13.0749 6.444 15.8109 10.252 15.8109H10.248Z" stroke="#00A77E" stroke-width="1.5" stroke-miterlimit="10" stroke-linecap="round" stroke-linejoin="round"/>
</svg>
