<svg width="24" height="26" viewBox="0 0 24 26" fill="none" xmlns="http://www.w3.org/2000/svg">
<path d="M8.759 22.8778V19.2998C8.76216 18.8616 8.93825 18.4424 9.24895 18.1334C9.55964 17.8244 9.9798 17.6506 10.418 17.6498H13.782C14.2223 17.6474 14.6455 17.8198 14.9588 18.1292C15.2721 18.4385 15.4498 18.8595 15.453 19.2998V22.8848C15.4548 23.2575 15.6022 23.6148 15.8637 23.8803C16.1253 24.1458 16.4804 24.2985 16.853 24.3058H19.1C20.1674 24.3103 21.193 23.891 21.9515 23.1398C22.7099 22.3887 23.1392 21.3672 23.145 20.2998V10.1348C23.1386 9.704 23.0343 9.2803 22.8401 8.89572C22.6459 8.51113 22.3669 8.1757 22.024 7.91479L14.354 1.79979C13.6993 1.28181 12.8889 1 12.054 1C11.2191 1 10.4087 1.28181 9.754 1.79979L2.121 7.92579C1.77693 8.18557 1.49698 8.52075 1.30266 8.90559C1.10833 9.29044 1.00479 9.7147 1 10.1458L1 20.2998C1.00236 20.8289 1.10895 21.3524 1.31368 21.8403C1.51841 22.3283 1.81728 22.7711 2.1932 23.1435C2.56912 23.5159 3.01472 23.8105 3.50456 24.0107C3.9944 24.2108 4.51887 24.3124 5.048 24.3098H7.29C7.47897 24.3107 7.66628 24.2744 7.84122 24.2029C8.01616 24.1315 8.17531 24.0263 8.30958 23.8933C8.44386 23.7603 8.55062 23.6022 8.62379 23.4279C8.69695 23.2537 8.73508 23.0668 8.736 22.8778" stroke="#00A77E" stroke-width="1.5" stroke-miterlimit="10" stroke-linecap="round" stroke-linejoin="round"/>
</svg>
