<svg width="24" height="11" viewBox="0 0 24 11" fill="none" xmlns="http://www.w3.org/2000/svg">
<path d="M9.46102 5.44501C9.46082 6.20856 9.23423 6.9549 8.8099 7.58969C8.38557 8.22447 7.78256 8.71919 7.07709 9.0113C6.37163 9.3034 5.59539 9.37978 4.84653 9.23077C4.09766 9.08176 3.40979 8.71406 2.86988 8.17415C2.32997 7.63424 1.96226 6.94636 1.81325 6.1975C1.66424 5.44863 1.74062 4.67239 2.03273 3.96693C2.32483 3.26146 2.81955 2.65845 3.45434 2.23412C4.08912 1.80979 4.83547 1.58321 5.59902 1.58301C6.6232 1.58327 7.60536 1.99025 8.32957 2.71445C9.05378 3.43866 9.46075 4.42082 9.46102 5.44501Z" stroke="#00A77E" stroke-width="1.5" stroke-miterlimit="10" stroke-linecap="round" stroke-linejoin="round"/>
<path d="M9.82501 5.5H23V9.362" stroke="#00A77E" stroke-width="1.5" stroke-miterlimit="10" stroke-linecap="round" stroke-linejoin="round"/>
<path d="M17.067 9.36102V5.49902" stroke="#00A77E" stroke-width="1.5" stroke-miterlimit="10" stroke-linecap="round" stroke-linejoin="round"/>
</svg>
