<svg width="20" height="20" viewBox="0 0 20 20" fill="none" xmlns="http://www.w3.org/2000/svg">
<path d="M10 0C8.02219 0 6.08879 0.58649 4.4443 1.6853C2.79981 2.78412 1.51809 4.3459 0.761209 6.17317C0.00433284 8.00043 -0.193701 10.0111 0.192152 11.9509C0.578004 13.8907 1.53041 15.6725 2.92894 17.0711C4.32746 18.4696 6.10929 19.422 8.0491 19.8079C9.98891 20.1937 11.9996 19.9957 13.8268 19.2388C15.6541 18.4819 17.2159 17.2002 18.3147 15.5557C19.4135 13.9112 20 11.9778 20 10C20 7.34784 18.9464 4.8043 17.0711 2.92893C15.1957 1.05357 12.6522 0 10 0ZM8.708 1.14C7.74436 2.33659 6.98481 3.68404 6.46 5.128C5.407 4.84343 4.39279 4.43103 3.44 3.9C4.82907 2.40512 6.68823 1.43107 8.708 1.14ZM2.992 4.428C4.01527 5.00978 5.10792 5.46001 6.244 5.768C5.85265 7.02959 5.6386 8.33946 5.608 9.66H1.052C1.12172 7.75325 1.80176 5.91926 2.992 4.428ZM1.052 10.336H5.608C5.63827 11.6566 5.85233 12.9665 6.244 14.228C5.10852 14.5377 4.01609 14.9879 2.992 15.568C1.80051 14.0774 1.12032 12.243 1.052 10.336ZM3.44 16.092C4.39426 15.565 5.40813 15.1541 6.46 14.868C6.98709 16.3109 7.74643 17.658 8.708 18.856C6.68717 18.5655 4.82743 17.5897 3.44 16.092ZM9.664 18.944C8.56352 17.6999 7.70119 16.264 7.12 14.708C7.95668 14.5282 8.80845 14.4277 9.664 14.408V18.944ZM9.664 13.732C8.73395 13.7541 7.80826 13.8666 6.9 14.068C6.52117 12.8589 6.31382 11.6027 6.284 10.336H9.664V13.732ZM9.664 9.664H6.284C6.31382 8.39732 6.52117 7.14108 6.9 5.932C7.80788 6.13557 8.7338 6.24812 9.664 6.268V9.664ZM9.664 5.592C8.80849 5.57178 7.95676 5.47134 7.12 5.292C7.69809 3.73451 8.56075 2.29809 9.664 1.056V5.592ZM18.948 9.664H14.388C14.3562 8.34358 14.1421 7.03388 13.752 5.772C14.8904 5.46162 15.9856 5.01012 17.012 4.428C18.2001 5.92173 18.8785 7.75668 18.948 9.664ZM16.56 3.908C15.6046 4.43838 14.5876 4.84946 13.532 5.132C13.0063 3.68805 12.2483 2.33964 11.288 1.14C13.3107 1.43102 15.1719 2.40825 16.56 3.908ZM10.34 1.056C11.4395 2.29941 12.2993 3.73561 12.876 5.292C12.0417 5.4696 11.1928 5.57003 10.34 5.592V1.056ZM10.34 6.268C11.2676 6.24789 12.1908 6.13534 13.096 5.932C13.4755 7.13955 13.6829 8.39456 13.712 9.66H10.34V6.268ZM10.34 10.336H13.712C13.6809 11.6013 13.4736 12.856 13.096 14.064C12.1902 13.8643 11.2673 13.7518 10.34 13.728V10.336ZM10.34 14.408C11.193 14.426 12.0423 14.5265 12.876 14.708C12.2993 16.2644 11.4395 17.7006 10.34 18.944V14.408ZM11.292 18.86C12.2523 17.6604 13.0103 16.312 13.536 14.868C14.5914 15.1512 15.6082 15.5623 16.564 16.092C15.1748 17.5902 13.3141 18.5672 11.292 18.86ZM17.008 15.572C15.9816 14.9899 14.8864 14.5384 13.748 14.228C14.1384 12.9662 14.3525 11.6565 14.384 10.336H18.944C18.8783 12.2441 18.1994 14.0801 17.008 15.572Z" fill="black"/>
</svg>
