<svg width="17" height="21" viewBox="0 0 17 21" fill="none" xmlns="http://www.w3.org/2000/svg">
<path opacity="0.4" d="M12.948 7.69996V5.55096C12.9331 4.35297 12.4474 3.20896 11.5959 2.36614C10.7444 1.52332 9.59546 1.04939 8.39738 1.04676C7.1993 1.04414 6.04829 1.51302 5.1931 2.3521C4.3379 3.19117 3.8472 4.33305 3.82703 5.53096L3.82703 7.69996" stroke="#000E0B" stroke-width="1.5" stroke-miterlimit="10" stroke-linecap="round" stroke-linejoin="round"/>
<path d="M12.208 19.5H4.56702C3.56132 19.5 2.59681 19.1004 1.88568 18.3893C1.17454 17.6782 0.775024 16.7137 0.775024 15.708L0.775024 11.419C0.775024 10.4133 1.17454 9.44874 1.88568 8.7376C2.59681 8.02647 3.56132 7.62695 4.56702 7.62695H12.208C12.706 7.62695 13.1991 7.72504 13.6592 7.9156C14.1192 8.10617 14.5373 8.38548 14.8894 8.7376C15.2415 9.08972 15.5208 9.50775 15.7114 9.96782C15.9019 10.4279 16 10.921 16 11.419V15.708C16 16.2059 15.9019 16.699 15.7114 17.1591C15.5208 17.6192 15.2415 18.0372 14.8894 18.3893C14.5373 18.7414 14.1192 19.0207 13.6592 19.2113C13.1991 19.4019 12.706 19.5 12.208 19.5Z" stroke="#000E0B" stroke-width="1.5" stroke-miterlimit="10" stroke-linecap="round" stroke-linejoin="round"/>
<path d="M8.38806 12.453V14.674" stroke="#000E0B" stroke-width="1.5" stroke-miterlimit="10" stroke-linecap="round" stroke-linejoin="round"/>
</svg>
