<svg width="28" height="7" viewBox="0 0 28 7" fill="none" xmlns="http://www.w3.org/2000/svg">
<path d="M24.5 6.5C26.1569 6.5 27.5 5.15685 27.5 3.5C27.5 1.84315 26.1569 0.5 24.5 0.5C22.8431 0.5 21.5 1.84315 21.5 3.5C21.5 5.15685 22.8431 6.5 24.5 6.5Z" stroke="#00A77E"/>
<path d="M14.5 6.5C16.1569 6.5 17.5 5.15685 17.5 3.5C17.5 1.84315 16.1569 0.5 14.5 0.5C12.8431 0.5 11.5 1.84315 11.5 3.5C11.5 5.15685 12.8431 6.5 14.5 6.5Z" stroke="#00A77E"/>
<path d="M3.5 6.5C5.15685 6.5 6.5 5.15685 6.5 3.5C6.5 1.84315 5.15685 0.5 3.5 0.5C1.84315 0.5 0.5 1.84315 0.5 3.5C0.5 5.15685 1.84315 6.5 3.5 6.5Z" stroke="#00A77E"/>
</svg>
