<svg width="23" height="26" viewBox="0 0 23 26" fill="none" xmlns="http://www.w3.org/2000/svg">
<path d="M0.784972 15.223V14.959C0.82443 14.1755 1.07531 13.4174 1.51097 12.765C2.23543 11.9822 2.73321 11.0171 2.95097 9.973C2.95097 9.173 2.95097 8.353 3.02097 7.549C3.38497 3.677 7.21297 1 10.995 1H11.085C14.866 1 18.695 3.677 19.069 7.549C19.139 8.349 19.069 9.169 19.128 9.973C19.3492 11.0182 19.8464 11.9851 20.568 12.773C21.007 13.4196 21.2582 14.1752 21.294 14.956V15.209C21.3218 16.2647 20.9602 17.2938 20.278 18.1C19.3684 19.0494 18.1456 19.637 16.836 19.754C12.9804 20.1675 9.09158 20.1675 5.23597 19.754C3.92756 19.6317 2.70619 19.0449 1.79297 18.1C1.12078 17.2941 0.762757 16.2722 0.784972 15.223Z" stroke="#707070" stroke-width="1.5" stroke-miterlimit="10" stroke-linecap="round" stroke-linejoin="round"/>
<path d="M8.09094 23.748C8.69914 24.5075 9.58245 24.9962 10.5489 25.108C11.518 25.2232 12.4936 24.9535 13.2659 24.357C13.5015 24.1815 13.7138 23.9769 13.8979 23.748" stroke="#707070" stroke-width="1.5" stroke-miterlimit="10" stroke-linecap="round" stroke-linejoin="round"/>
</svg>
