<svg width="23" height="27" viewBox="0 0 23 27" fill="none" xmlns="http://www.w3.org/2000/svg">
<path d="M17.8908 10.017V7.12701C17.8741 5.51203 17.2217 3.96869 16.075 2.83135C14.9283 1.694 13.3797 1.05426 11.7646 1.0507C10.1496 1.04715 8.59817 1.68008 7.4465 2.81237C6.29484 3.94466 5.63567 5.48512 5.61182 7.10001L5.61182 10.017" stroke="#00A77E" stroke-width="1.5" stroke-miterlimit="10" stroke-linecap="round" stroke-linejoin="round"/>
<path d="M16.8949 25.906H6.60793C5.93735 25.9067 5.27322 25.7751 4.65356 25.5187C4.03389 25.2624 3.47086 24.8864 2.99669 24.4123C2.52251 23.9381 2.1465 23.375 1.89019 22.7554C1.63387 22.1357 1.50227 21.4716 1.50293 20.801V15.027C1.50227 14.3564 1.63387 13.6923 1.89019 13.0726C2.1465 12.453 2.52251 11.8899 2.99669 11.4158C3.47086 10.9416 4.03389 10.5656 4.65356 10.3093C5.27322 10.0529 5.93735 9.92135 6.60793 9.922H16.8949C17.5658 9.92095 18.2302 10.0523 18.8502 10.3084C19.4702 10.5645 20.0336 10.9405 20.5081 11.4147C20.9826 11.8889 21.3589 12.4521 21.6154 13.0719C21.8719 13.6918 22.0036 14.3562 22.0029 15.027V20.801C22.0036 21.4718 21.8719 22.1362 21.6154 22.7561C21.3589 23.3759 20.9826 23.9391 20.5081 24.4133C20.0336 24.8875 19.4702 25.2635 18.8502 25.5196C18.2302 25.7758 17.5658 25.9071 16.8949 25.906Z" stroke="#00A77E" stroke-width="1.5" stroke-miterlimit="10" stroke-linecap="round" stroke-linejoin="round"/>
<path d="M11.752 16.419V19.409" stroke="#00A77E" stroke-width="1.5" stroke-miterlimit="10" stroke-linecap="round" stroke-linejoin="round"/>
</svg>
