<svg width="21" height="22" viewBox="0 0 21 22" fill="none" xmlns="http://www.w3.org/2000/svg">
<path d="M1.49006 3.79499C1.80606 3.26999 3.55006 1.36499 4.79306 1.42099C5.16524 1.4777 5.50664 1.66058 5.76006 1.93899C6.71668 2.94658 7.54528 4.0684 8.22706 5.27899C8.47206 6.44699 7.07806 7.12099 7.50006 8.29899C7.99663 9.5732 8.75251 10.7303 9.71977 11.6971C10.687 12.6638 11.8446 13.4191 13.1191 13.915C14.2961 14.342 14.9701 12.95 16.1381 13.192C17.3488 13.8739 18.4707 14.7029 19.4781 15.66C19.7563 15.9134 19.9389 16.2549 19.9951 16.627C20.0411 17.936 18.0181 19.704 17.6241 19.927C16.6941 20.593 15.4801 20.581 14.0001 19.893C9.87406 18.178 3.27406 11.703 1.52406 7.42099C0.854058 5.94599 0.809058 4.72099 1.49006 3.79499Z" stroke="#00A77E" stroke-width="1.5" stroke-miterlimit="10" stroke-linecap="round" stroke-linejoin="round"/>
<path d="M13.0649 1.67099C14.8622 1.87065 16.5381 2.67547 17.8176 3.9533C19.097 5.23113 19.904 6.90602 20.1059 8.70299" stroke="#00A77E" stroke-width="1.5" stroke-miterlimit="10" stroke-linecap="round" stroke-linejoin="round"/>
<path d="M13.0649 5.21399C13.9306 5.38229 14.7263 5.80538 15.3499 6.42899C15.9735 7.0526 16.3966 7.84828 16.5649 8.71399" stroke="#00A77E" stroke-width="1.5" stroke-miterlimit="10" stroke-linecap="round" stroke-linejoin="round"/>
</svg>
