<svg width="22" height="21" viewBox="0 0 22 21" fill="none" xmlns="http://www.w3.org/2000/svg">
<path d="M6.66609 20.5C5.904 20.5247 5.14509 20.3907 4.43755 20.1065C3.73001 19.8223 3.0893 19.394 2.55609 18.849C1.50284 17.6832 0.944768 16.1531 1.00009 14.583V6.41696C0.945529 4.84668 1.50472 3.31689 2.55909 2.15196C3.09186 1.60711 3.73205 1.17891 4.43905 0.894524C5.14605 0.610141 5.90443 0.475781 6.66609 0.499965H15.3331C16.0952 0.475232 16.8541 0.60923 17.5616 0.893452C18.2692 1.17767 18.9099 1.60591 19.4431 2.15096C20.4967 3.31662 21.0551 4.84667 21.0001 6.41696V14.584C21.0554 16.1541 20.4973 17.6842 19.4441 18.85C18.9107 19.395 18.2698 19.8231 17.5621 20.1071C16.8543 20.3912 16.0953 20.525 15.3331 20.5H6.66609ZM6.66609 19H15.3321C15.8941 19.0223 16.4546 18.9271 16.9777 18.7205C17.5008 18.5139 17.9751 18.2003 18.3701 17.8C19.1466 16.9129 19.5513 15.7607 19.5001 14.583V13.815L19.4511 13.772C19.3511 13.672 19.2351 13.572 19.1011 13.443L18.4011 12.77C17.937 12.2956 17.4187 11.8775 16.8571 11.524C16.4903 11.3115 16.0543 11.2533 15.6446 11.362C15.235 11.4708 14.8852 11.7376 14.6721 12.104L14.5471 12.272C14.5061 12.331 14.4631 12.392 14.4171 12.461L14.0251 13.082C13.5861 13.9862 12.8932 14.7431 12.0311 15.26C11.6015 15.5101 11.1078 15.6283 10.6115 15.5999C10.1152 15.5714 9.63828 15.3976 9.24009 15.1L8.80009 14.828L8.43209 14.589C8.2712 14.4851 8.10195 14.3948 7.92609 14.319C7.25509 14.038 6.66009 14.349 5.83709 15.324L4.03209 17.532L3.73209 17.898C4.12423 18.2662 4.58538 18.5531 5.08894 18.7422C5.5925 18.9314 6.12852 19.019 6.66609 19ZM2.50009 6.41696V14.584C2.49062 15.2676 2.61284 15.9466 2.86009 16.584L4.01009 15.184L4.51809 14.558C5.79809 12.973 6.97109 12.288 8.50609 12.932C8.74495 13.0332 8.97506 13.1539 9.19409 13.293L9.85509 13.72C10.5151 14.138 10.8291 14.198 11.3111 13.937C11.813 13.6309 12.2236 13.1958 12.5001 12.677L12.8001 12.199L13.0001 11.871C13.1465 11.6339 13.3047 11.4042 13.4741 11.183C13.9123 10.5226 14.5875 10.056 15.3602 9.87952C16.1328 9.70307 16.9437 9.83033 17.6251 10.235C18.3056 10.6579 18.9325 11.1616 19.4921 11.735V6.41696C19.5437 5.24165 19.1404 4.09167 18.3661 3.20596C17.9713 2.80533 17.497 2.49163 16.9739 2.28498C16.4507 2.07833 15.8901 1.9833 15.3281 2.00596H6.66609C4.13709 1.99996 2.50009 3.73596 2.50009 6.41696ZM5.27109 7.29996C5.27109 6.78573 5.42358 6.28305 5.70927 5.85548C5.99496 5.42791 6.40103 5.09467 6.87611 4.89788C7.3512 4.70109 7.87398 4.6496 8.37833 4.74992C8.88268 4.85024 9.34595 5.09787 9.70957 5.46149C10.0732 5.8251 10.3208 6.28838 10.4211 6.79273C10.5215 7.29708 10.47 7.81985 10.2732 8.29494C10.0764 8.77003 9.74314 9.17609 9.31557 9.46179C8.88801 9.74748 8.38532 9.89996 7.87109 9.89996C7.18153 9.89996 6.52021 9.62604 6.03261 9.13844C5.54502 8.65085 5.27109 7.98953 5.27109 7.29996ZM6.77109 7.29996C6.77109 7.51752 6.8356 7.7302 6.95647 7.91109C7.07734 8.09199 7.24914 8.23298 7.45014 8.31623C7.65114 8.39949 7.87231 8.42127 8.08569 8.37883C8.29907 8.33638 8.49507 8.23162 8.64891 8.07778C8.80275 7.92394 8.90751 7.72794 8.94995 7.51456C8.9924 7.30119 8.97061 7.08001 8.88736 6.87901C8.8041 6.67801 8.66311 6.50622 8.48222 6.38535C8.30132 6.26448 8.08865 6.19996 7.87109 6.19996C7.57987 6.20076 7.30085 6.317 7.09521 6.52321C6.88957 6.72941 6.77409 7.00875 6.77409 7.29996H6.77109Z" fill="white"/>
</svg>
