<svg width="17" height="21" viewBox="0 0 17 21" fill="none" xmlns="http://www.w3.org/2000/svg">
<path d="M8.57903 10.556C11.2178 10.556 13.357 8.41682 13.357 5.778C13.357 3.13918 11.2178 1 8.57903 1C5.94021 1 3.80103 3.13918 3.80103 5.778C3.80103 8.41682 5.94021 10.556 8.57903 10.556Z" stroke="#00A77E" stroke-width="1.5" stroke-miterlimit="10" stroke-linecap="round" stroke-linejoin="round"/>
<path d="M1.00001 17.201C0.998864 16.8652 1.07409 16.5335 1.22001 16.231C1.55213 15.7805 1.97419 15.4039 2.45944 15.1251C2.9447 14.8462 3.48258 14.6711 4.03901 14.611C4.81138 14.4474 5.59432 14.3384 6.38201 14.285C7.84087 14.1568 9.30816 14.1568 10.767 14.285C11.5547 14.3404 12.3376 14.4506 13.11 14.615C14.181 14.835 15.472 15.274 15.929 16.235C16.0739 16.5396 16.1491 16.8727 16.1491 17.21C16.1491 17.5473 16.0739 17.8804 15.929 18.185C15.471 19.146 14.181 19.585 13.11 19.796C12.3386 19.9677 11.5554 20.0811 10.767 20.135C9.58059 20.2339 8.38874 20.2506 7.20001 20.185C6.92719 20.1941 6.65414 20.1756 6.38501 20.13C5.5995 20.0767 4.81922 19.9634 4.05101 19.791C2.96801 19.585 1.68701 19.142 1.22001 18.185C1.07413 17.8775 0.998958 17.5413 1.00001 17.201Z" stroke="#00A77E" stroke-width="1.5" stroke-miterlimit="10" stroke-linecap="round" stroke-linejoin="round"/>
</svg>
