<svg width="18" height="21" viewBox="0 0 18 21" fill="none" xmlns="http://www.w3.org/2000/svg">
<path d="M15.615 3.58594C15.8276 3.66041 16.0119 3.79898 16.1424 3.98255C16.273 4.16613 16.3434 4.38567 16.344 4.61094V11.3839C16.3452 13.2572 15.6706 15.0681 14.444 16.4839C13.8188 17.1783 13.0736 17.7541 12.244 18.1839L8.678 20.1109L5.114 18.1829C4.28153 17.754 3.5335 17.1781 2.906 16.4829C1.67739 15.0679 1.00061 13.257 1 11.3829L1 4.61094C1.00057 4.38567 1.07099 4.16613 1.20156 3.98255C1.33212 3.79898 1.5164 3.66041 1.729 3.58594L8.311 1.27294C8.54468 1.19092 8.79932 1.19092 9.033 1.27294L15.615 3.58594Z" stroke="#00A77E" stroke-width="1.5" stroke-miterlimit="10" stroke-linecap="round" stroke-linejoin="round"/>
<path d="M6.073 10.379L7.965 12.274L11.863 8.37402" stroke="#00A77E" stroke-width="1.5" stroke-miterlimit="10" stroke-linecap="round" stroke-linejoin="round"/>
</svg>
