<svg width="21" height="19" viewBox="0 0 21 19" fill="none" xmlns="http://www.w3.org/2000/svg">
<path d="M9.5 13.522C9.49973 13.3225 9.57847 13.1309 9.71901 12.9893C9.85955 12.8476 10.0505 12.7673 10.25 12.766C10.3482 12.7655 10.4456 12.7843 10.5365 12.8215C10.6274 12.8587 10.7101 12.9135 10.7797 12.9827C10.8494 13.0519 10.9047 13.1342 10.9425 13.2249C10.9803 13.3156 10.9999 13.4128 11 13.511V13.522C11 13.7209 10.921 13.9117 10.7803 14.0523C10.6397 14.193 10.4489 14.272 10.25 14.272C10.0511 14.272 9.86032 14.193 9.71967 14.0523C9.57902 13.9117 9.5 13.7209 9.5 13.522Z" fill="white" stroke="#00A77E"/>
<path d="M3.04497 17.668H17.527C17.8584 17.6513 18.181 17.5556 18.4677 17.3886C18.7545 17.2217 18.9971 16.9885 19.1753 16.7085C19.3534 16.4286 19.4618 16.11 19.4915 15.7795C19.5212 15.449 19.4713 15.1162 19.346 14.809L12.069 2.07298C11.889 1.74811 11.6254 1.47735 11.3054 1.28882C10.9854 1.10028 10.6208 1.00085 10.2495 1.00085C9.87809 1.00085 9.51349 1.10028 9.19353 1.28882C8.87357 1.47735 8.60992 1.74811 8.42997 2.07298L1.15297 14.809C1.05038 15.0622 0.998671 15.3331 1.0008 15.6062C1.00292 15.8794 1.05883 16.1495 1.16535 16.4011C1.27186 16.6526 1.42688 16.8807 1.62156 17.0724C1.81624 17.264 2.04676 17.4154 2.29997 17.518C2.51558 17.6046 2.74395 17.6553 2.97597 17.668" stroke="#00A77E" stroke-width="1.5" stroke-miterlimit="10" stroke-linecap="round" stroke-linejoin="round"/>
<path d="M10.24 10.646V7.54602V10.646Z" fill="white"/>
<path d="M10.24 10.646V7.54602" stroke="#00A77E" stroke-width="1.5" stroke-miterlimit="10" stroke-linecap="round" stroke-linejoin="round"/>
</svg>
